# xmcd CD database file
#
# Track frame offsets:
#	150
#	25395
#	58288
#	82520
#	111164
#	134577
#	152498
#	171414
#	189445
#	213183
#
# Disc length: 3084 seconds
#
# Revision: 0
# Processed by: cddbd v1.5.2PL0 Copyright (c) Steve Scherf et al.
# Submitted via: CDex 1.51
#
DISCID=820c0a0a
DTITLE=Doug Jay and The Blue Jays - Live In Twist 2006
DYEAR=2006
DGENRE=Blues
TTITLE0=I Wonder Why
TTITLE1=Half Ain´t Been Told
TTITLE2=Irma Lee
TTITLE3=Until We Meet Again
TTITLE4=Show Me The Way To Love You
TTITLE5=Ya Hoodoo Me
TTITLE6=Jackpot
TTITLE7=What Kind Of Gal Is That
TTITLE8=I Jump
TTITLE9=I Feel So Bad
EXTD=YEAR: 2006
EXTT0=
EXTT1=
EXTT2=
EXTT3=
EXTT4=
EXTT5=
EXTT6=
EXTT7=
EXTT8=
EXTT9=
PLAYORDER=
